# Blender 3.6.0 Alpha
# www.blender.org
mtllib glass.mtl
o Cube
v -2.792059 -2.796435 9.760000
v -2.751797 -2.756109 9.698407
v -2.763589 -2.767920 9.741961
v -2.751797 2.756109 9.698407
v -2.792059 2.796435 9.760000
v -2.763589 2.767920 9.741961
v 2.792059 -2.796435 9.760000
v 2.751797 -2.756109 9.698407
v 2.763589 -2.767920 9.741961
v 2.751797 2.756109 9.698407
v 2.792059 2.796435 9.760000
v 2.763589 2.767920 9.741961
v 3.190000 -3.195000 9.679277
v 3.137233 -3.142150 9.760000
v 3.174545 -3.179520 9.736357
v -3.190000 -3.195000 9.679277
v -3.137233 -3.142150 9.760000
v -3.174545 -3.179520 9.736357
v 3.137233 3.142150 9.760000
v 3.190000 3.195000 9.679277
v 3.174545 3.179520 9.736357
v -3.137233 3.142150 9.760000
v -3.190000 3.195000 9.679277
v -3.174545 3.179520 9.736357
v -2.751797 -2.756109 0.499423
v -2.708641 -2.712887 0.433405
v -2.739157 -2.743450 0.452741
v -2.708641 2.712887 0.433405
v -2.751797 2.756109 0.499423
v -2.739157 2.743450 0.452741
v 2.751797 -2.756109 0.499423
v 2.708641 -2.712887 0.433405
v 2.739157 -2.743450 0.452741
v 2.708641 2.712887 0.433405
v 2.751797 2.756109 0.499423
v 2.739157 2.743450 0.452741
v 3.190000 -3.195000 0.065391
v 3.147255 -3.152188 0.000000
v 3.177480 -3.182460 0.019153
v -3.147255 -3.152188 0.000000
v -3.190000 -3.195000 0.065391
v -3.177480 -3.182460 0.019153
v 3.190000 3.195000 0.065391
v 3.147255 3.152188 0.000000
v 3.177480 3.182460 0.019153
v -3.147255 3.152188 0.000000
v -3.190000 3.195000 0.065391
v -3.177480 3.182460 0.019153
vn -0.0000 -0.0000 1.0000
vn -0.0000 -1.0000 -0.0000
vn -1.0000 -0.0000 -0.0000
vn -0.0000 1.0000 -0.0000
vn 0.9652 -0.0000 0.2614
vn 0.5352 -0.0000 0.8447
vn -0.0000 0.9651 0.2617
vn -0.0000 0.5347 0.8451
vn -0.0000 -0.9651 0.2617
vn -0.0000 -0.5347 0.8451
vn -0.9652 -0.0000 0.2614
vn -0.5352 -0.0000 0.8447
vn -0.0000 -0.0000 -1.0000
vn -0.0000 0.5346 0.8451
vn -0.0000 -0.5346 0.8451
vn 1.0000 -0.0000 -0.0000
vn -0.0000 0.5347 -0.8451
vn -0.0000 0.9651 -0.2617
vn 0.5353 -0.0000 -0.8447
vn 0.9652 -0.0000 -0.2614
vn -0.5353 -0.0000 -0.8447
vn -0.9652 -0.0000 -0.2614
vn -0.0000 -0.5347 -0.8451
vn -0.0000 -0.9651 -0.2617
vt 0.625000 0.750000
vt 0.625000 0.750000
vt 0.625000 0.750000
vt 0.625000 0.000000
vt 0.625000 1.000000
vt 0.625000 1.000000
vt 0.625000 0.000000
vt 0.625000 1.000000
vt 0.625000 0.000000
vt 0.625000 0.500000
vt 0.625000 0.500000
vt 0.625000 0.500000
vt 0.625000 0.250000
vt 0.625000 0.250000
vt 0.625000 0.250000
vt 0.622932 0.500000
vt 0.625000 0.500000
vt 0.625000 0.500000
vt 0.622932 0.750000
vt 0.625000 0.750000
vt 0.625000 0.750000
vt 0.625000 0.250000
vt 0.622932 0.250000
vt 0.625000 0.250000
vt 0.625000 1.000000
vt 0.625000 0.000000
vt 0.622932 1.000000
vt 0.622932 0.000000
vt 0.625000 0.999394
vt 0.625000 0.000606
vt 0.625000 0.750000
vt 0.626960 0.748040
vt 0.625574 0.750000
vt 0.625000 0.750574
vt 0.625000 0.749426
vt 0.873040 0.748040
vt 0.625000 0.000000
vt 0.625000 1.000000
vt 0.874426 0.750000
vt 0.625000 0.999426
vt 0.875000 0.749426
vt 0.625000 0.000574
vt 0.625000 0.500000
vt 0.626960 0.501960
vt 0.625000 0.500574
vt 0.625574 0.500000
vt 0.625000 0.499426
vt 0.873040 0.501960
vt 0.625000 0.250000
vt 0.875000 0.500574
vt 0.625000 0.249426
vt 0.874426 0.500000
vt 0.625000 0.250574
vt 0.376675 0.500000
vt 0.373325 0.501675
vt 0.374509 0.500000
vt 0.375000 0.499509
vt 0.375000 0.500491
vt 0.373325 0.748325
vt 0.376675 0.750000
vt 0.374509 0.750000
vt 0.375000 0.750491
vt 0.375000 0.749509
vt 0.376675 0.250000
vt 0.126675 0.501675
vt 0.125000 0.500491
vt 0.375000 0.249509
vt 0.125491 0.500000
vt 0.375000 0.250491
vt 0.126675 0.748325
vt 0.376675 0.000000
vt 0.376675 1.000000
vt 0.125000 0.749509
vt 0.375000 0.000491
vt 0.125491 0.750000
vt 0.375000 0.999509
s 0
usemtl Material
f 22/25/1 17/20/1 1/1/1 5/6/1
f 19/22/1 22/26/1 5/7/1 11/14/1
f 37/54/2 13/16/2 16/19/2 41/60/2
f 14/17/1 19/22/1 11/14/1 7/10/1
f 41/60/3 16/19/3 23/27/3 47/72/3
f 17/20/1 14/17/1 7/10/1 1/1/1
f 10/13/2 4/4/2 29/37/2 35/49/2
f 8/11/3 10/13/3 35/49/3 31/43/3
f 2/2/4 8/11/4 31/43/4 25/31/4
f 47/71/4 23/28/4 20/23/4 43/64/4
f 2/2/5 4/5/5 6/8/5 3/3/5
f 3/3/6 6/8/6 5/6/6 1/1/6
f 8/11/7 2/2/7 3/3/7 9/12/7
f 9/12/8 3/3/8 1/1/8 7/10/8
f 4/4/9 10/13/9 12/15/9 6/9/9
f 6/9/10 12/15/10 11/14/10 5/7/10
f 10/13/11 8/11/11 9/12/11 12/15/11
f 12/15/12 9/12/12 7/10/12 11/14/12
f 32/44/1 34/48/1 28/36/1 26/32/1
f 17/20/12 22/25/12 24/29/12 18/21/12
f 18/21/11 24/29/11 23/27/11 16/19/11
f 14/17/10 17/20/10 18/21/10 15/18/10
f 15/18/9 18/21/9 16/19/9 13/16/9
f 22/26/8 19/22/8 21/24/8 24/30/8
f 24/30/7 21/24/7 20/23/7 23/28/7
f 19/22/6 14/17/6 15/18/6 21/24/6
f 21/24/5 15/18/5 13/16/5 20/23/5
f 44/65/13 38/55/13 40/59/13 46/70/13
f 26/32/6 28/36/6 30/39/6 27/33/6
f 27/34/5 30/40/5 29/38/5 25/31/5
f 32/44/14 26/32/14 27/35/14 33/45/14
f 33/45/7 27/35/7 25/31/7 31/43/7
f 28/36/15 34/48/15 36/50/15 30/41/15
f 30/42/9 36/51/9 35/49/9 29/37/9
f 34/48/12 32/44/12 33/46/12 36/52/12
f 36/53/11 33/47/11 31/43/11 35/49/11
f 4/5/16 2/2/16 25/31/16 29/38/16
f 44/65/17 46/70/17 48/73/17 45/66/17
f 45/67/18 48/74/18 47/71/18 43/64/18
f 38/55/19 44/65/19 45/68/19 39/56/19
f 39/57/20 45/69/20 43/64/20 37/54/20
f 46/70/21 40/59/21 42/61/21 48/75/21
f 48/76/22 42/62/22 41/60/22 47/72/22
f 40/59/23 38/55/23 39/58/23 42/63/23
f 42/63/24 39/58/24 37/54/24 41/60/24
f 43/64/16 20/23/16 13/16/16 37/54/16
